<mxfile host="app.diagrams.net" modified="2024-01-29T20:09:21.200Z" agent="Mozilla/5.0 (Windows NT 10.0; Win64; x64) AppleWebKit/537.36 (KHTML, like Gecko) Chrome/120.0.0.0 Safari/537.36" etag="ioj7ka_45Bs6yxWnDfOz" version="23.0.2" type="github">
  <diagram name="Page-1" id="P7TLeiTiltHmnGCo5MTN">
    <mxGraphModel dx="1114" dy="604" grid="1" gridSize="10" guides="1" tooltips="1" connect="1" arrows="1" fold="1" page="1" pageScale="1" pageWidth="827" pageHeight="1169" math="0" shadow="0">
      <root>
        <mxCell id="0" />
        <mxCell id="1" parent="0" />
        <mxCell id="sqn5vPOxeCrrnbe9mnzl-3" value="" style="edgeStyle=orthogonalEdgeStyle;rounded=0;orthogonalLoop=1;jettySize=auto;html=1;endArrow=block;endFill=0;" edge="1" parent="1" source="sqn5vPOxeCrrnbe9mnzl-1" target="sqn5vPOxeCrrnbe9mnzl-2">
          <mxGeometry relative="1" as="geometry" />
        </mxCell>
        <mxCell id="sqn5vPOxeCrrnbe9mnzl-5" style="edgeStyle=orthogonalEdgeStyle;rounded=0;orthogonalLoop=1;jettySize=auto;html=1;entryX=0;entryY=0.5;entryDx=0;entryDy=0;endArrow=none;endFill=0;" edge="1" parent="1" source="sqn5vPOxeCrrnbe9mnzl-1" target="sqn5vPOxeCrrnbe9mnzl-4">
          <mxGeometry relative="1" as="geometry" />
        </mxCell>
        <mxCell id="sqn5vPOxeCrrnbe9mnzl-1" value="Visiteur" style="shape=umlActor;verticalLabelPosition=bottom;verticalAlign=top;html=1;outlineConnect=0;fillStyle=auto;" vertex="1" parent="1">
          <mxGeometry x="80" y="50" width="30" height="60" as="geometry" />
        </mxCell>
        <mxCell id="sqn5vPOxeCrrnbe9mnzl-2" value="Client" style="shape=umlActor;verticalLabelPosition=bottom;verticalAlign=top;html=1;outlineConnect=0;fillStyle=auto;" vertex="1" parent="1">
          <mxGeometry x="80" y="190" width="30" height="60" as="geometry" />
        </mxCell>
        <mxCell id="sqn5vPOxeCrrnbe9mnzl-4" value="Consulter" style="ellipse;whiteSpace=wrap;html=1;" vertex="1" parent="1">
          <mxGeometry x="260" y="50" width="130" height="60" as="geometry" />
        </mxCell>
        <mxCell id="sqn5vPOxeCrrnbe9mnzl-10" style="edgeStyle=orthogonalEdgeStyle;rounded=0;orthogonalLoop=1;jettySize=auto;html=1;endArrow=none;endFill=0;" edge="1" parent="1" source="sqn5vPOxeCrrnbe9mnzl-8">
          <mxGeometry relative="1" as="geometry">
            <mxPoint x="130" y="80" as="targetPoint" />
          </mxGeometry>
        </mxCell>
        <mxCell id="sqn5vPOxeCrrnbe9mnzl-8" value="Inscription" style="ellipse;whiteSpace=wrap;html=1;" vertex="1" parent="1">
          <mxGeometry x="250" y="120" width="140" height="60" as="geometry" />
        </mxCell>
        <mxCell id="sqn5vPOxeCrrnbe9mnzl-11" value="Recherce events et service touristique" style="ellipse;whiteSpace=wrap;html=1;" vertex="1" parent="1">
          <mxGeometry x="250" y="200" width="140" height="50" as="geometry" />
        </mxCell>
        <mxCell id="sqn5vPOxeCrrnbe9mnzl-13" value="Reserver service touristique" style="ellipse;whiteSpace=wrap;html=1;" vertex="1" parent="1">
          <mxGeometry x="240" y="260" width="160" height="40" as="geometry" />
        </mxCell>
        <mxCell id="sqn5vPOxeCrrnbe9mnzl-14" value="Reserver service touristique" style="ellipse;whiteSpace=wrap;html=1;" vertex="1" parent="1">
          <mxGeometry x="240" y="310" width="160" height="40" as="geometry" />
        </mxCell>
      </root>
    </mxGraphModel>
  </diagram>
</mxfile>
